<svg width="720" height="520" viewBox="0 0 720 520" fill="none" xmlns="http://www.w3.org/2000/svg">
  <rect width="720" height="520" rx="40" fill="#FFF9FD"/>
  <circle cx="560" cy="108" r="52" fill="#FFF1B8"/>
  <circle cx="125" cy="400" r="58" fill="#C9F4DC"/>
  <circle cx="604" cy="372" r="72" fill="#CFE8FF"/>
  <ellipse cx="300" cy="282" rx="138" ry="132" fill="#FFD9BE"/>
  <ellipse cx="300" cy="282" rx="86" ry="82" fill="#FFF9FD"/>
  <circle cx="236" cy="183" r="25" fill="#FFC6DF"/>
  <circle cx="368" cy="189" r="25" fill="#E5D8FF"/>
  <circle cx="420" cy="274" r="25" fill="#FFF1B8"/>
  <circle cx="359" cy="375" r="25" fill="#CFE8FF"/>
  <circle cx="239" cy="374" r="25" fill="#C9F4DC"/>
  <circle cx="180" cy="273" r="25" fill="#FFC6DF"/>
  <path d="M507 182C534.614 182 557 204.386 557 232C557 259.614 534.614 282 507 282C479.386 282 457 259.614 457 232C457 204.386 479.386 182 507 182Z" fill="#E5D8FF"/>
  <path d="M507 206C521.359 206 533 217.641 533 232C533 246.359 521.359 258 507 258C492.641 258 481 246.359 481 232C481 217.641 492.641 206 507 206Z" fill="#FFF9FD"/>
  <path d="M474 142C485.114 142 494.125 151.011 494.125 162.125C494.125 173.239 485.114 182.25 474 182.25C462.886 182.25 453.875 173.239 453.875 162.125C453.875 151.011 462.886 142 474 142Z" fill="#FFC6DF"/>
  <path d="M548 134C559.114 134 568.125 143.011 568.125 154.125C568.125 165.239 559.114 174.25 548 174.25C536.886 174.25 527.875 165.239 527.875 154.125C527.875 143.011 536.886 134 548 134Z" fill="#C9F4DC"/>
  <path d="M598 222C609.114 222 618.125 231.011 618.125 242.125C618.125 253.239 609.114 262.25 598 262.25C586.886 262.25 577.875 253.239 577.875 242.125C577.875 231.011 586.886 222 598 222Z" fill="#FFD9BE"/>
  <path d="M167 140C232.722 140 286 193.278 286 259C286 324.722 232.722 378 167 378C101.278 378 48 324.722 48 259C48 193.278 101.278 140 167 140Z" fill="#CFE8FF"/>
  <path d="M167 192C204.003 192 234 221.997 234 259C234 296.003 204.003 326 167 326C129.997 326 100 296.003 100 259C100 221.997 129.997 192 167 192Z" fill="#FFF9FD"/>
  <path d="M167 98L178.449 131.744H214L185.276 152.512L196.724 186.256L167 165.488L137.276 186.256L148.724 152.512L120 131.744H155.551L167 98Z" fill="#FFC6DF"/>
</svg>
