<svg width="640" height="480" viewBox="0 0 640 480" fill="none" xmlns="http://www.w3.org/2000/svg">
  <rect width="640" height="480" rx="32" fill="#FDFEFF"/>
  <circle cx="124" cy="356" r="58" fill="#FFD9BE"/>
  <circle cx="523" cy="114" r="50" fill="#E5D8FF"/>
  <path d="M319 136C389.692 136 447 193.308 447 264C447 334.692 389.692 392 319 392C248.308 392 191 334.692 191 264C191 193.308 248.308 136 319 136Z" fill="#CFE8FF"/>
  <path d="M319 190C359.869 190 393 223.131 393 264C393 304.869 359.869 338 319 338C278.131 338 245 304.869 245 264C245 223.131 278.131 190 319 190Z" fill="#FFF9FD"/>
  <path d="M249 169C262.255 169 273 179.745 273 193C273 206.255 262.255 217 249 217C235.745 217 225 206.255 225 193C225 179.745 235.745 169 249 169Z" fill="#FFF1B8"/>
  <path d="M388 193C401.255 193 412 203.745 412 217C412 230.255 401.255 241 388 241C374.745 241 364 230.255 364 217C364 203.745 374.745 193 388 193Z" fill="#FFC6DF"/>
  <path d="M409 286C422.255 286 433 296.745 433 310C433 323.255 422.255 334 409 334C395.745 334 385 323.255 385 310C385 296.745 395.745 286 409 286Z" fill="#C9F4DC"/>
  <path d="M319 357C332.255 357 343 367.745 343 381C343 394.255 332.255 405 319 405C305.745 405 295 394.255 295 381C295 367.745 305.745 357 319 357Z" fill="#FFD9BE"/>
</svg>
