<svg width="640" height="480" viewBox="0 0 640 480" fill="none" xmlns="http://www.w3.org/2000/svg">
  <rect width="640" height="480" rx="32" fill="#FFFFFE"/>
  <circle cx="118" cy="132" r="52" fill="#CFE8FF"/>
  <circle cx="510" cy="362" r="58" fill="#FFC6DF"/>
  <path d="M320 135C392.349 135 451 193.651 451 266C451 338.349 392.349 397 320 397C247.651 397 189 338.349 189 266C189 193.651 247.651 135 320 135Z" fill="#FFF1B8"/>
  <path d="M320 188C363.63 188 399 223.37 399 267C399 310.63 363.63 346 320 346C276.37 346 241 310.63 241 267C241 223.37 276.37 188 320 188Z" fill="#FFFDF6"/>
  <path d="M247 190L271.686 214.686L247 239.373L222.314 214.686L247 190Z" fill="#FFD9BE"/>
  <path d="M392 189L416.686 213.686L392 238.373L367.314 213.686L392 189Z" fill="#C9F4DC"/>
  <path d="M418 292L442.686 316.686L418 341.373L393.314 316.686L418 292Z" fill="#E5D8FF"/>
  <path d="M319 358L343.686 382.686L319 407.373L294.314 382.686L319 358Z" fill="#CFE8FF"/>
</svg>
